<svg xmlns:xlink="http://www.w3.org/1999/xlink" viewBox="0 0 122 122" height="48" width="48" fill="none" xmlns="http://www.w3.org/2000/svg">
<path fill-rule="evenodd" clip-rule="evenodd" d="M48.3815 1.35918C29.3015 5.51018 14.6315 17.1812 5.91952 35.1402C-13.0985 74.3422 16.0485 120.737 59.9765 121.184C71.5535 121.301 77.9605 119.867 88.7155 114.749C108.521 105.323 121.947 83.5562 121.947 60.8742C121.947 31.2882 100.729 6.04818 71.5425 0.917179C63.8255 -0.439821 55.9595 -0.289821 48.3815 1.35918ZM77.0625 4.23818C96.0835 10.2172 111.426 25.1082 117.01 43.0112C120.013 52.6392 120.267 68.6382 117.547 76.8742C110.974 96.7792 95.8025 111.772 76.4765 117.463C67.9045 119.988 52.5875 119.761 43.8535 116.98C30.3015 112.666 15.7485 100.567 9.35152 88.2962C2.76752 75.6662 0.852521 59.4342 4.35552 45.9492C9.83252 24.8672 28.2325 7.66518 50.4765 2.82918C55.9115 1.64818 71.4395 2.47118 77.0625 4.23818ZM47.2485 6.31118C23.3765 12.0952 4.93952 35.6662 4.99152 60.3342C5.04952 88.2802 24.8805 111.738 52.0055 115.946C86.4525 121.291 116.977 95.4182 116.977 60.8742C116.977 45.3682 111.486 32.1482 100.569 21.3742C92.5405 13.4502 84.2505 8.62218 74.8835 6.41418C67.2225 4.60818 54.4725 4.56018 47.2485 6.31118ZM53.9765 17.7072C53.9765 19.4872 52.7235 21.9912 50.6075 24.4382C47.6675 27.8392 47.0305 28.1642 45.6075 26.9832C44.5575 26.1112 43.9765 24.0812 43.9765 21.2802C43.9765 17.2332 44.2015 16.8662 47.2265 15.9932C52.9515 14.3402 53.9765 14.6002 53.9765 17.7072ZM89.2765 18.4802C94.0865 20.8932 103.977 30.9562 103.977 33.4382C103.977 34.6072 103.066 36.3882 101.953 37.3952C100.573 38.6442 100.255 39.5522 100.953 40.2502C102.612 41.9092 102.129 45.4262 99.9765 47.3742C98.8765 48.3692 97.9765 49.9882 97.9765 50.9702C97.9765 53.9702 96.0885 54.1462 92.8795 51.4462C88.5155 47.7742 87.8985 47.9402 87.5725 52.8742C87.3795 55.8112 84.5675 54.3042 81.9775 49.8752C80.5305 47.4012 78.4755 45.2192 77.4115 45.0272C75.6415 44.7072 75.6685 44.8592 77.7265 46.8142C80.2925 49.2522 80.6895 51.8742 78.4925 51.8742C77.6755 51.8742 75.5755 50.5942 73.8255 49.0302C70.2505 45.8362 70.4165 43.4172 74.3145 41.9362C76.7625 41.0052 78.0005 38.9942 77.9445 36.0422C77.9215 34.8212 77.3635 35.1112 75.8615 37.1242C73.4585 40.3452 70.9765 40.7262 70.9765 37.8742C70.9765 35.7052 69.5125 35.1982 68.4085 36.9842C68.0065 37.6342 66.3245 37.8682 64.3495 37.5472C61.1435 37.0272 60.4145 37.5982 60.8995 40.2492C61.2065 41.9262 57.6505 44.8742 55.3215 44.8742C53.4705 44.8742 52.9765 44.3332 52.9765 42.3082C52.9765 36.8332 57.8755 30.8812 62.4005 30.8592C64.0925 30.8502 66.1515 30.4072 66.9765 29.8742C68.1545 29.1132 67.9125 28.9012 65.8485 28.8892C62.5705 28.8702 60.8845 26.9432 61.6345 24.0722C62.3265 21.4272 65.4705 21.1582 66.8715 23.6242C67.7105 25.1012 68.1845 25.1792 69.9075 24.1242C71.0305 23.4372 73.6565 22.8742 75.7435 22.8742C79.0415 22.8742 79.6865 22.4812 80.6705 19.8742C81.9795 16.4052 84.3695 16.0182 89.2765 18.4802ZM32.3945 21.4812C34.8155 22.4102 34.2935 25.0332 30.8615 29.1982C26.4465 34.5542 28.3865 35.2902 32.9655 29.9962C35.1125 27.5132 37.2335 25.9152 37.8645 26.3052C42.0745 28.9072 32.5385 43.8742 26.6705 43.8742C25.8475 43.8742 24.2295 45.4752 23.0745 47.4332C20.4675 51.8502 18.9765 51.1012 18.9765 45.3742C18.9765 42.9642 18.5265 40.7142 17.9765 40.3742C16.5325 39.4812 16.7485 35.2162 18.3995 32.0222C19.9435 29.0372 28.3435 20.8742 29.8725 20.8742C30.3895 20.8742 31.5245 21.1472 32.3945 21.4812ZM30.5525 62.6392C31.1585 67.4902 31.8235 68.8822 34.8725 71.6842C36.8545 73.5062 41.8285 76.6562 45.9245 78.6852C52.9435 82.1612 53.9235 82.3742 62.9245 82.3692C71.4685 82.3652 73.0445 82.0662 77.8575 79.5362C84.2975 76.1512 92.0075 68.6942 94.8715 63.0812C97.2565 58.4052 98.9695 56.9432 98.9915 59.5652C99.0045 61.0872 99.1565 61.1372 99.9505 59.8822C100.688 58.7172 101.158 58.6552 102.102 59.5992C104.05 61.5472 101.394 71.0532 97.1275 77.3992C92.8375 83.7802 85.3315 89.5042 79.2425 91.0372C74.8385 92.1462 73.8085 93.8752 72.7935 101.864C72.6185 103.233 71.7435 104.493 70.8475 104.664C67.9895 105.208 65.9765 102.068 65.9705 97.0532C65.9645 92.3742 65.9645 92.3742 60.1865 92.3192C51.2725 92.2352 42.4405 87.6482 33.2925 78.3502C29.2475 74.2382 25.2215 70.8742 24.3465 70.8742C22.3595 70.8742 12.9765 64.8722 12.9765 63.6012C12.9765 63.0852 14.6645 62.9132 16.7265 63.2172C25.2025 64.4672 25.3995 64.4482 25.8155 62.3742C26.5995 58.4732 27.9855 55.7612 28.9045 56.3302C29.4175 56.6462 30.1585 59.4862 30.5525 62.6392ZM50.0165 59.8942C52.1945 61.0062 53.9765 62.5722 53.9765 63.3752C53.9765 65.3372 49.6665 66.3142 47.0925 64.9362C43.4095 62.9652 41.9555 57.8742 45.0755 57.8742C45.6145 57.8742 47.8385 58.7832 50.0165 59.8942ZM67.7885 67.1642C68.1475 71.4952 65.0575 77.3962 61.9065 78.3962C57.4615 79.8072 43.9765 72.5882 43.9765 68.7972C43.9765 67.4362 47.1155 67.7382 49.9765 69.3742C51.3515 70.1602 53.9335 70.8192 55.7135 70.8392C58.4285 70.8682 59.3655 70.2182 61.5165 66.8112C64.7735 61.6522 67.3445 61.7962 67.7885 67.1642ZM26.3575 76.3072C29.5125 80.4432 29.6705 83.1802 26.9155 85.9352C24.3815 88.4692 21.5835 88.0982 21.1645 85.1742C20.9505 83.6742 20.0395 82.8982 18.2415 82.6842C16.8055 82.5142 15.4605 81.8542 15.2515 81.2182C14.7765 79.7692 20.7335 72.8742 22.4615 72.8742C23.1645 72.8742 24.9175 74.4192 26.3575 76.3072Z" fill="#305DAB"></path>
</svg>